<svg width="31" height="27" viewBox="0 0 31 27" fill="none" xmlns="http://www.w3.org/2000/svg">
<path fill-rule="evenodd" clip-rule="evenodd" d="M6.07125 7.00254C5.89365 7.00216 5.72244 7.02226 5.55976 7.06048C5.33674 6.56893 5.04216 6.12794 4.70711 5.79289C4.13843 5.22422 3.24155 5 2 5V7C2.75845 7 3.1949 7.10911 3.29289 7.20711C3.67086 7.58508 4 8.35306 4 9L4.01005 9.14142L4.98992 16.0005C3.35036 16.0856 2.0802 17.3588 2.00123 18.9504L2 20C2.09682 21.6439 3.36275 22.9085 4.94324 22.9984L5.17026 22.9987C5.58174 24.1646 6.69331 25 8 25C9.30622 25 10.4175 24.1652 10.8293 23H13.1707C13.5825 24.1652 14.6938 25 16 25C17.6569 25 19 23.6569 19 22C19 20.3431 17.6569 19 16 19C14.6938 19 13.5825 19.8348 13.1707 21H10.8293C10.4175 19.8348 9.30622 19 8 19C6.69378 19 5.58254 19.8348 5.17071 21H5C4.49001 20.9694 4.03254 20.5124 3.99821 19.9401L4 19C4.02697 18.4813 4.48131 18.027 5.04955 17.9988L7.02369 17.9993L7.038 18H17.1169L17.2645 17.9532C18.0227 17.7126 18.6296 17.1416 18.917 16.4025L19.0224 16.194L19.3647 15.5159C19.7188 14.8139 20.0729 14.1108 20.418 13.4238C21.2632 11.7411 21.7948 10.6717 21.9125 10.4091C22.5171 9.06045 21.2924 8.02246 20.0407 8.00036L6.07125 7.00254ZM16.7694 16H7.11287C7.04866 15.9822 6.99973 15.9278 6.99015 15.86L6.01026 9.00073L19.8934 9.99493C19.6505 10.4903 19.2089 11.3752 18.6308 12.5261L18.6163 12.5549C18.2863 13.2119 17.9326 13.9141 17.579 14.6151L17.2371 15.2923L17.1076 15.5488L17.0588 15.6622C17.0065 15.8078 16.9028 15.9274 16.7694 16ZM16 23C16.5523 23 17 22.5523 17 22C17 21.4477 16.5523 21 16 21C15.4477 21 15 21.4477 15 22C15 22.5523 15.4477 23 16 23ZM9 22C9 22.5523 8.55228 23 8 23C7.44772 23 7 22.5523 7 22C7 21.4477 7.44772 21 8 21C8.55228 21 9 21.4477 9 22Z" fill="#002540"/>
<circle cx="22" cy="9" r="8" fill="#800080" stroke="white" stroke-width="2"/>
<path d="M20.23 10.45C20.87 9.89667 21.3733 9.44333 21.74 9.09C22.1133 8.73 22.4233 8.35667 22.67 7.97C22.9167 7.58333 23.04 7.19667 23.04 6.81C23.04 6.41 22.9433 6.09667 22.75 5.87C22.5633 5.64333 22.2667 5.53 21.86 5.53C21.4667 5.53 21.16 5.65667 20.94 5.91C20.7267 6.15667 20.6133 6.49 20.6 6.91H19.5C19.52 6.15 19.7467 5.57 20.18 5.17C20.62 4.76333 21.1767 4.56 21.85 4.56C22.5767 4.56 23.1433 4.76 23.55 5.16C23.9633 5.56 24.17 6.09333 24.17 6.76C24.17 7.24 24.0467 7.70333 23.8 8.15C23.56 8.59 23.27 8.98667 22.93 9.34C22.5967 9.68667 22.17 10.09 21.65 10.55L21.2 10.95H24.37V11.9H19.51V11.07L20.23 10.45Z" fill="white"/>
</svg>
